<?xml version="1.0" standalone="no"?>
<!DOCTYPE svg PUBLIC "-//W3C//DTD SVG 20010904//EN"
 "http://www.w3.org/TR/2001/REC-SVG-20010904/DTD/svg10.dtd">
<svg version="1.0" xmlns="http://www.w3.org/2000/svg"
 width="477.000000pt" height="615.000000pt" viewBox="0 0 477.000000 615.000000"
 preserveAspectRatio="xMidYMid meet">

<g transform="translate(0.000000,615.000000) scale(0.100000,-0.100000)"
fill="#000000" stroke="none">
<path d="M0 4771 c0 -1370 0 -1379 20 -1384 11 -3 20 -12 20 -21 0 -19 -11
-21 -28 -4 -9 9 -12 -51 -12 -269 l0 -282 30 11 c24 8 35 7 48 -4 9 -8 36 -20
60 -27 45 -13 78 -50 68 -77 -3 -8 1 -22 9 -30 9 -10 15 -34 15 -65 0 -45 -4
-55 -43 -95 -46 -49 -89 -65 -144 -53 -27 5 -32 3 -37 -15 -3 -11 -6 -569 -6
-1238 l0 -1218 2385 0 2385 0 0 1758 c0 1748 0 1757 -20 1725 -33 -55 -87 -75
-191 -71 -50 1 -96 6 -102 10 -8 5 -5 8 8 8 16 0 12 6 -18 31 -20 17 -37 35
-37 41 0 5 18 -6 41 -25 63 -55 144 -64 226 -25 45 21 93 75 93 105 0 13 -5 9
-19 -13 -25 -41 -64 -68 -129 -89 -47 -16 -55 -16 -89 -2 -23 9 -54 36 -82 71
-41 51 -46 64 -49 119 -3 56 -1 66 25 99 26 33 55 52 76 49 5 -1 5 4 1 10 -5
9 -2 10 10 6 11 -5 15 -3 10 5 -5 7 1 9 19 6 15 -3 24 -1 21 3 -3 5 2 9 11 9
9 0 13 -4 10 -10 -3 -5 0 -10 8 -10 26 0 40 -26 27 -50 -10 -18 -8 -26 8 -43
30 -34 33 -43 22 -72 -7 -17 -7 -24 0 -20 15 10 11 -38 -5 -59 -28 -37 -15
-47 23 -18 13 10 29 36 37 57 10 29 14 34 15 17 0 -41 -29 -81 -83 -112 -54
-31 -91 -37 -117 -19 -12 8 -9 9 13 5 18 -4 27 -2 28 6 4 42 -6 76 -27 99 -13
14 -24 35 -24 47 0 35 22 72 46 78 35 9 19 32 -19 28 -38 -5 -62 -31 -79 -86
-10 -34 -9 -48 4 -84 17 -49 7 -59 -16 -16 -11 20 -15 22 -16 9 0 -10 23 -40
50 -67 45 -44 56 -50 93 -50 44 0 107 26 143 58 49 42 54 68 54 277 l0 195
-39 0 c-22 0 -43 5 -46 10 -4 6 12 10 39 10 l46 0 0 74 c0 56 -4 75 -15 80 -8
3 -15 15 -15 26 0 22 15 27 23 8 3 -7 6 31 6 85 1 89 -1 98 -17 93 -9 -3 -34
-8 -55 -12 -20 -3 -48 -15 -62 -26 -24 -19 -65 -97 -65 -124 0 -8 -4 -14 -10
-14 -29 0 1 102 41 139 31 29 93 61 118 61 10 0 22 7 25 16 3 8 10 12 16 9 7
-4 10 281 10 859 l0 866 -1504 0 -1504 0 -6 -25 c-4 -14 -10 -25 -15 -25 -4 0
-6 11 -3 25 l4 25 -871 0 -871 0 0 -1379z m1740 1315 c0 -2 -7 -7 -16 -10 -8
-3 -12 -2 -9 4 6 10 25 14 25 6z m1050 -20 c0 -2 -7 -6 -15 -10 -8 -3 -15 -1
-15 4 0 6 7 10 15 10 8 0 15 -2 15 -4z m-401 -48 c4 -18 11 -33 17 -33 6 0 18
-8 28 -17 21 -22 25 -22 51 -2 24 18 62 11 121 -22 l42 -23 6 22 7 22 10 -23
c5 -13 6 -29 2 -35 -4 -7 1 -6 11 2 13 11 14 16 4 23 -7 4 2 5 22 1 29 -5 33
-4 24 8 -12 15 6 62 22 58 5 -1 15 9 22 22 15 26 15 30 0 -55 -2 -10 4 -21 12
-23 13 -4 13 -3 0 6 -12 8 -12 13 -2 23 9 9 12 9 12 0 0 -6 7 -9 15 -6 10 4
15 0 16 -12 1 -17 2 -17 6 -1 8 32 22 17 17 -20 -3 -25 -2 -32 4 -19 7 17 9
17 24 2 20 -19 48 -21 48 -3 0 9 2 9 9 -1 7 -11 9 -11 14 2 10 26 30 19 25 -8
-4 -19 0 -26 17 -30 28 -7 67 -41 57 -51 -4 -5 -2 -5 5 -1 17 10 59 -13 74
-40 16 -31 31 -31 19 0 -7 18 -5 26 6 30 10 4 14 -2 14 -20 0 -21 4 -24 20
-19 14 5 25 -2 42 -29 16 -25 28 -34 41 -30 9 3 17 1 17 -5 0 -6 5 -11 11 -11
8 0 7 5 -1 15 -19 23 -7 28 16 7 23 -21 42 -22 54 -2 5 8 11 12 14 9 3 -3 -3
-15 -14 -27 l-21 -22 25 0 c13 0 26 -7 30 -15 3 -8 17 -20 31 -27 14 -6 25
-17 25 -24 0 -7 6 -15 13 -18 6 -4 2 -4 -10 -2 -13 2 -25 1 -28 -3 -2 -4 1 -8
8 -8 53 -4 71 -10 75 -25 2 -10 12 -20 22 -23 10 -3 22 -19 25 -35 5 -21 17
-35 41 -46 19 -9 34 -23 34 -31 0 -8 -4 -11 -10 -8 -5 3 -10 -1 -10 -10 0 -12
6 -14 28 -9 26 7 26 6 10 -12 -14 -16 -14 -22 -3 -37 9 -13 20 -17 33 -13 11
4 23 2 27 -4 3 -5 1 -10 -4 -10 -20 0 -11 -21 25 -60 30 -32 41 -38 64 -33 26
5 28 3 26 -21 -2 -14 1 -26 6 -26 5 0 8 -8 7 -17 -5 -29 19 -63 39 -56 15 6
15 5 3 -10 -8 -10 -10 -21 -6 -25 4 -4 10 -1 12 6 3 6 9 12 15 12 7 0 7 -4 1
-12 -15 -20 8 -54 32 -50 15 3 17 1 8 -9 -6 -8 -7 -23 -4 -33 7 -18 8 -18 14
-2 4 9 11 15 16 12 5 -4 12 2 14 11 4 16 5 16 6 1 0 -9 -3 -20 -9 -23 -13 -8
-13 -42 -1 -50 5 -3 15 1 23 8 17 16 65 47 74 47 4 0 -14 -20 -40 -45 -43 -43
-56 -65 -38 -65 4 0 14 6 21 13 10 10 11 7 7 -13 -7 -27 8 -59 21 -46 4 5 2
11 -4 13 -7 3 -13 10 -13 15 0 6 3 8 7 4 4 -4 14 8 23 26 21 46 80 73 126 58
36 -12 71 -49 80 -86 3 -12 -2 -38 -11 -58 -19 -40 -66 -61 -126 -57 -27 2
-38 -2 -44 -16 -12 -26 -14 -53 -3 -59 5 -3 6 -14 3 -25 -4 -11 -3 -19 2 -18
20 3 25 -2 13 -15 -12 -16 -1 -49 16 -46 5 0 11 -6 12 -16 3 -10 0 -14 -7 -10
-6 4 -11 0 -11 -8 0 -9 6 -16 14 -16 18 0 30 -33 21 -60 -4 -12 -2 -20 5 -20
7 0 14 9 17 21 4 16 8 17 14 7 13 -20 11 -25 -11 -31 -11 -3 -20 -13 -20 -22
0 -15 3 -15 15 -5 9 7 18 10 21 7 3 -3 -3 -12 -15 -19 -12 -7 -21 -17 -21 -22
0 -4 11 -1 25 8 14 9 25 12 25 7 0 -5 -6 -11 -14 -14 -8 -3 -20 -16 -26 -27
-11 -20 -10 -21 9 -15 12 4 21 2 21 -4 0 -6 -5 -11 -10 -11 -6 0 -10 -6 -9
-12 3 -26 -1 -39 -11 -33 -6 3 -7 -1 -4 -9 3 -9 13 -16 21 -16 8 0 11 -4 8
-10 -3 -5 -8 -35 -11 -65 -5 -44 -3 -55 9 -55 15 0 27 -21 27 -43 -1 -7 -6 -2
-13 10 -11 20 -12 18 -12 -22 0 -24 3 -38 7 -32 5 9 10 9 20 -1 10 -10 10 -17
-1 -34 -11 -18 -11 -20 3 -15 10 4 16 1 16 -7 0 -8 -5 -16 -11 -18 -18 -6 11
-128 31 -128 10 0 11 -3 3 -8 -17 -11 -4 -62 16 -62 14 0 14 -2 1 -10 -12 -7
-12 -12 -2 -22 6 -6 12 -23 12 -36 0 -18 3 -22 13 -14 9 8 12 -11 10 -91 l-1
-102 -29 -5 c-21 -4 -24 -7 -11 -12 9 -4 24 -4 35 -2 15 4 18 -1 19 -35 1 -25
-3 -41 -10 -41 -6 0 -5 -4 3 -9 17 -11 6 -31 -17 -31 -32 -1 -61 -34 -67 -75
-3 -28 -2 -35 5 -25 7 11 10 0 10 -37 0 -29 -4 -53 -10 -53 -5 0 -10 -7 -10
-15 0 -8 -4 -15 -10 -15 -5 0 -10 -4 -10 -10 0 -5 9 -10 21 -10 11 0 17 -4 14
-11 -5 -7 -15 -5 -31 5 -29 19 -55 21 -29 3 11 -9 15 -19 10 -28 -6 -11 -5
-12 6 -1 18 16 29 15 29 -3 0 -8 -5 -15 -11 -15 -5 0 -7 -5 -3 -12 5 -8 2 -9
-9 -5 -30 11 -28 -12 3 -34 18 -14 30 -31 29 -43 -1 -17 -2 -18 -6 -3 -2 9 -9
14 -15 11 -7 -4 -8 -2 -4 4 3 6 -2 16 -12 21 -20 11 -32 6 -32 -13 0 -6 4 -5
9 3 6 9 11 10 15 2 4 -6 -2 -23 -14 -38 -12 -15 -18 -34 -15 -45 4 -10 2 -18
-4 -18 -6 0 -11 -10 -11 -21 0 -19 -2 -20 -17 -8 -10 9 -14 9 -10 2 5 -7 -8
-33 -28 -62 -29 -40 -36 -59 -38 -105 -1 -37 -6 -56 -14 -56 -18 0 -15 -37 6
-90 26 -64 11 -97 -62 -134 -20 -11 -37 -25 -37 -32 0 -7 -5 -16 -12 -20 -8
-5 -9 -2 -5 9 3 10 2 17 -3 17 -12 0 -13 -30 -1 -49 5 -8 14 -10 21 -6 9 6 11
4 6 -4 -5 -7 -15 -10 -24 -6 -18 7 -31 -11 -33 -45 0 -14 -3 -19 -6 -12 -2 6
-9 12 -15 12 -6 0 -8 -6 -5 -14 7 -18 -36 -103 -50 -99 -7 3 -9 -4 -6 -16 4
-16 1 -21 -15 -21 -11 0 -23 -7 -26 -16 -3 -8 -10 -12 -16 -9 -5 3 -10 -2 -10
-12 0 -11 -4 -23 -9 -28 -5 -6 -12 -21 -16 -35 -7 -23 -7 -24 11 -10 19 14 19
14 0 -7 -19 -23 -36 -17 -47 16 -3 8 -9 4 -17 -13 -7 -16 -8 -28 -2 -31 6 -4
10 1 10 10 0 9 5 13 10 10 19 -12 10 -34 -29 -71 -26 -23 -38 -41 -34 -52 5
-10 3 -13 -6 -8 -7 5 -11 17 -8 27 3 10 1 21 -3 24 -5 3 -12 -10 -15 -29 -4
-19 -13 -37 -21 -40 -8 -3 -14 -12 -14 -20 0 -9 -7 -13 -22 -9 -21 4 -22 3 -5
-10 18 -15 23 -37 8 -37 -5 0 -12 6 -15 13 -5 9 -7 9 -12 -2 -4 -7 -15 -21
-25 -29 -11 -9 -19 -22 -19 -29 0 -7 -6 -13 -14 -13 -21 0 -30 -20 -17 -33 8
-8 11 -6 11 6 0 9 5 17 10 17 18 0 10 -29 -10 -35 -24 -8 -40 -57 -20 -63 10
-4 9 -6 -1 -14 -11 -7 -11 -11 -1 -15 6 -2 12 -12 12 -21 0 -13 -5 -11 -19 8
-11 13 -17 28 -15 32 2 3 0 9 -6 13 -5 3 -10 -3 -10 -14 0 -12 -7 -21 -15 -21
-8 0 -15 -6 -15 -14 0 -19 17 -29 25 -16 8 13 25 13 25 -1 0 -5 -4 -7 -10 -4
-5 3 -10 -1 -10 -9 0 -9 -7 -16 -15 -16 -8 0 -15 -4 -15 -10 0 -5 -9 -10 -20
-10 -22 0 -28 -38 -9 -57 11 -11 -5 -32 -47 -61 -27 -19 92 45 144 77 96 59
209 135 234 159 25 23 28 23 34 8 4 -11 0 -25 -12 -36 -42 -41 -271 -192 -362
-238 -183 -94 -428 -180 -564 -197 -27 -3 -48 -11 -48 -16 0 -14 124 -229 132
-229 4 0 37 54 75 120 l68 120 59 0 c44 0 57 -3 53 -13 -3 -8 -49 -81 -104
-163 l-98 -149 -5 -145 -5 -145 -45 0 -45 0 -5 145 c-5 139 -6 147 -34 190
-91 141 -119 181 -134 189 -8 5 -17 17 -18 27 -1 11 -6 29 -9 41 -7 22 -5 23
43 23 39 0 64 8 114 36 163 92 359 251 452 365 33 42 108 132 166 200 105 124
167 203 211 270 117 175 130 200 173 318 25 69 50 148 56 174 6 27 17 65 25
85 9 19 18 56 21 81 3 25 7 60 9 76 6 47 47 228 56 250 5 11 25 85 45 165 29
117 38 173 44 295 4 83 13 191 19 242 7 51 15 152 20 225 6 115 8 128 18 98
10 -33 10 -31 17 45 4 44 12 99 18 123 15 61 3 267 -22 372 -34 142 -83 267
-152 390 -92 164 -288 392 -418 485 -30 22 -63 47 -73 56 -25 22 -213 116
-247 123 -3 1 -11 5 -19 10 -10 6 -12 5 -7 -2 12 -20 -8 -13 -27 8 -9 11 -25
20 -35 20 -10 0 -22 4 -28 8 -5 5 -36 17 -69 26 -33 10 -70 21 -82 26 -15 6
-23 6 -23 0 0 -6 7 -10 16 -10 11 0 14 -6 9 -22 -5 -18 -4 -20 4 -8 8 12 13
12 23 2 9 -9 9 -12 0 -12 -30 0 -2 -27 43 -42 28 -9 42 -17 33 -17 -9 -1 -20
-6 -23 -12 -9 -13 25 -38 42 -32 7 3 13 0 13 -7 0 -6 -4 -8 -10 -5 -5 3 -10
-1 -10 -10 0 -11 5 -15 15 -11 18 7 20 -15 3 -33 -11 -10 -9 -12 7 -9 11 2 19
9 18 16 -2 6 4 9 12 6 19 -8 19 -24 0 -24 -18 0 -20 -26 -3 -36 7 -4 8 -3 4 4
-4 7 -3 12 1 12 12 0 44 -71 37 -82 -3 -4 -11 -8 -17 -8 -7 0 -6 4 3 10 12 8
12 10 1 10 -8 0 -20 8 -27 18 -9 12 -13 13 -14 3 0 -7 -6 -11 -14 -8 -8 3 -20
-1 -27 -9 -7 -8 -18 -13 -26 -10 -9 4 -13 -3 -14 -22 -1 -17 -3 -20 -6 -9 -2
9 -9 17 -15 17 -5 0 -8 7 -5 14 6 16 -6 13 -53 -11 l-25 -13 25 0 c14 0 32 -5
40 -11 13 -10 13 -10 0 -6 -11 3 -15 -2 -15 -17 2 -35 12 -43 60 -50 25 -4 45
-9 45 -12 0 -3 -7 -18 -15 -35 -17 -33 -38 -30 -33 4 2 18 -2 22 -22 22 -14 0
-37 8 -52 17 -14 9 -35 14 -47 11 -16 -4 -21 -1 -22 13 0 11 -3 14 -6 7 -2 -7
-14 -13 -26 -14 -17 0 -11 -6 21 -22 54 -27 54 -39 1 -21 -28 10 -45 11 -53 5
-8 -7 -32 -7 -65 -2 -48 8 -53 6 -72 -17 -13 -17 -16 -29 -9 -36 15 -15 12
-26 -5 -26 -23 0 -10 -65 22 -112 14 -21 27 -38 29 -38 8 0 63 88 58 93 -6 6
18 47 27 47 3 0 4 -11 2 -24 -4 -17 1 -27 16 -36 32 -17 46 -59 26 -79 -14
-14 -17 -14 -25 -1 -13 22 -23 5 -11 -19 7 -13 8 -22 1 -26 -5 -3 -10 -15 -10
-26 0 -11 4 -18 8 -15 4 2 13 -4 20 -15 10 -15 10 -19 0 -17 -8 2 -12 -5 -10
-17 16 -97 17 -115 10 -117 -5 -2 -11 -12 -12 -23 -2 -11 -9 -19 -15 -18 -6 2
-11 -3 -11 -11 0 -21 -39 -31 -56 -15 -7 8 -20 28 -29 44 l-16 30 6 -35 c4
-19 23 -75 41 -124 19 -49 33 -94 31 -99 -4 -12 -67 136 -67 157 0 8 -4 18
-10 21 -5 3 -14 24 -20 46 -6 23 -14 38 -17 35 -7 -7 27 -102 77 -216 21 -47
40 -94 44 -105 6 -16 9 -17 16 -5 7 11 10 5 10 -22 0 -21 9 -60 20 -87 14 -38
16 -52 7 -59 -19 -15 -65 -23 -72 -12 -3 5 -15 10 -27 10 l-20 0 21 35 20 35
-33 77 c-18 43 -37 78 -42 78 -5 0 -10 -24 -12 -53 -3 -57 -22 -63 -22 -7 0
25 -5 35 -21 40 -18 6 -20 13 -16 41 4 20 2 32 -4 29 -5 -4 -9 -14 -9 -24 0
-10 -12 -27 -27 -37 -24 -15 -48 -18 -173 -16 -165 2 -164 1 -210 100 -13 30
-26 49 -28 44 -2 -6 6 -27 17 -48 27 -51 26 -70 -4 -90 -20 -13 -25 -24 -25
-59 0 -55 8 -75 26 -68 9 3 18 -5 24 -23 6 -16 25 -44 43 -61 33 -35 65 -40
132 -23 25 6 22 8 -23 9 -50 1 -112 25 -112 43 0 13 17 9 30 -7 10 -12 36 -14
139 -12 69 2 134 7 144 11 10 5 17 4 17 -2 0 -12 -54 -32 -86 -32 -13 0 -24
-4 -24 -10 0 -5 -7 -10 -15 -10 -8 0 -15 -5 -15 -11 0 -7 7 -8 18 -4 9 4 35
12 57 17 49 11 72 31 80 69 4 16 10 29 14 29 5 0 20 11 35 25 52 49 14 -22
-51 -92 -52 -56 -143 -86 -200 -67 -21 8 -54 14 -73 14 -31 -1 -43 8 -102 72
l-68 73 0 62 c0 34 -4 65 -10 68 -5 3 -10 1 -10 -6 0 -7 -3 -9 -6 -6 -9 8 -74
-121 -74 -145 0 -10 4 -18 9 -18 10 0 34 -61 27 -68 -3 -2 -8 7 -12 22 -3 14
-8 26 -11 26 -11 0 -33 -30 -33 -44 0 -13 -4 -12 -20 4 -11 11 -27 20 -35 20
-19 0 -19 3 4 48 11 21 23 70 26 110 4 40 12 72 16 72 5 0 9 10 9 23 0 12 5
29 10 37 12 18 2 -46 -11 -72 -5 -9 -9 -25 -8 -35 0 -16 48 70 49 89 0 4 13
35 29 70 39 86 40 93 30 109 -7 11 -9 9 -9 -8 0 -31 -34 -106 -56 -123 -17
-13 -18 -13 -8 0 6 8 21 44 32 80 18 54 20 76 14 130 l-8 65 -8 -41 c-4 -22
-16 -53 -26 -70 -24 -35 -25 -29 -4 22 10 23 14 53 11 76 -6 43 0 53 19 33 12
-11 18 -11 44 1 38 19 43 29 25 44 -10 9 -15 9 -15 1 0 -6 -3 -10 -7 -10 -26
4 -34 -2 -27 -23 7 -23 6 -23 -14 -5 -19 17 -23 17 -42 4 -18 -12 -19 -16 -5
-27 8 -7 15 -19 15 -27 0 -12 -3 -12 -16 1 -22 23 -41 20 -48 -8 -3 -14 -20
-40 -36 -58 -17 -18 -30 -39 -31 -48 0 -9 -3 -10 -5 -3 -3 6 11 42 30 79 19
38 33 70 31 73 -14 13 -54 4 -79 -18 -26 -24 -28 -24 -17 -4 15 29 14 34 -4
27 -8 -4 -15 -1 -15 6 0 8 9 11 25 8 17 -4 25 -1 25 9 0 9 5 11 12 7 34 -21
88 -4 88 28 0 9 -8 21 -17 27 -15 8 -16 13 -5 30 16 28 15 33 -5 22 -10 -5
-30 -14 -45 -22 -16 -7 -28 -18 -28 -26 0 -17 -10 -16 -33 2 -23 16 -16 46 16
72 12 10 33 35 47 55 15 22 28 34 34 28 9 -9 86 28 86 42 0 3 -16 12 -36 18
-32 11 -34 13 -17 26 24 18 34 17 27 -1 -4 -8 -1 -15 5 -15 6 0 11 5 11 11 0
5 4 8 9 5 5 -4 7 2 4 13 -4 15 -14 19 -56 19 -29 0 -57 -4 -64 -10 -14 -11
-51 -2 -74 18 -13 12 -19 11 -39 -11 -26 -28 -62 -32 -100 -10 -33 19 -49 19
-56 0 -8 -20 40 -65 69 -65 12 0 38 14 57 31 46 39 71 54 65 37 -2 -7 14 -26
36 -41 37 -25 40 -31 34 -59 -4 -17 -17 -41 -29 -54 -29 -30 -106 -77 -106
-64 0 6 -21 -2 -47 -16 -29 -17 -66 -28 -93 -30 -25 -1 -47 -3 -49 -3 -2 -1 7
-10 20 -21 14 -11 18 -19 11 -20 -7 0 -20 -7 -29 -15 -21 -22 -47 -1 -39 31 5
18 3 22 -9 18 -19 -8 -19 10 1 41 15 22 14 23 -5 18 -15 -4 -23 1 -30 18 -5
13 -10 18 -10 11 -1 -20 -59 44 -63 69 -3 22 -4 22 -21 5 -17 -18 -19 -18 -32
0 -14 18 -14 18 -15 0 0 -11 -5 -16 -13 -13 -8 3 -20 1 -28 -4 -11 -7 -9 -10
8 -15 12 -3 25 -15 28 -25 4 -11 18 -33 32 -49 26 -32 26 -47 -1 -37 -9 4 -13
13 -10 22 8 19 0 19 -20 -1 -18 -17 -22 -39 -6 -29 17 10 11 -22 -6 -36 -15
-12 -16 -11 -10 8 4 12 2 24 -3 27 -5 4 -12 -3 -16 -14 -7 -23 -20 -26 -29 -7
-4 6 -4 2 -2 -11 4 -20 2 -21 -11 -11 -12 10 -16 10 -23 0 -5 -10 -9 -10 -15
-1 -4 7 -18 9 -36 5 -17 -4 -29 -2 -29 3 0 6 -8 8 -19 5 -24 -6 -30 14 -15 57
7 19 13 29 13 21 1 -11 5 -10 21 4 10 9 18 22 17 29 -1 6 4 10 11 8 13 -2 102
46 138 76 24 19 54 73 54 97 0 18 -4 19 -38 1 -36 -18 -92 -28 -92 -16 0 5 5
12 10 15 6 3 10 10 10 15 0 10 -39 -25 -117 -103 -33 -32 -43 -38 -43 -24 0
10 -5 15 -10 12 -6 -4 -8 -11 -5 -16 4 -5 -1 -9 -9 -9 -21 0 -20 7 4 37 26 33
17 44 -9 12 -44 -52 -18 -5 34 62 30 39 55 73 55 75 0 30 -177 -159 -226 -241
-59 -98 -126 -246 -139 -307 -11 -53 -11 -58 4 -58 10 0 23 14 31 35 8 21 17
30 21 24 4 -8 10 -5 17 7 6 10 14 15 18 11 4 -4 0 -21 -9 -36 -9 -16 -17 -36
-17 -45 0 -9 -6 -16 -13 -16 -17 0 -49 -39 -42 -50 3 -6 -1 -7 -11 -3 -14 5
-16 -1 -14 -43 3 -55 -8 -114 -21 -114 -5 0 -9 -6 -9 -14 0 -7 -7 -19 -15 -26
-8 -7 -15 -22 -15 -34 0 -12 -9 -38 -20 -58 -13 -25 -21 -63 -24 -117 -2 -44
-8 -86 -12 -92 -5 -8 -3 -9 6 -4 10 6 12 1 7 -23 -4 -17 -2 -34 3 -37 6 -4 8
-25 5 -48 -4 -33 -3 -36 4 -17 l9 25 0 -25 c1 -14 -3 -46 -7 -72 -4 -27 -5
-48 -2 -48 4 0 7 -19 8 -42 14 -490 19 -550 51 -646 38 -111 62 -207 72 -282
4 -30 19 -98 33 -150 14 -52 28 -115 32 -140 10 -64 67 -264 109 -379 29 -78
134 -232 263 -383 21 -25 52 -62 68 -84 73 -94 158 -188 271 -299 121 -119
217 -205 228 -205 3 0 34 -19 68 -43 35 -23 82 -51 106 -61 38 -17 56 -36 33
-36 -6 0 -10 -117 -11 -297 0 -164 -4 -301 -9 -306 -5 -5 -24 -7 -42 -5 l-34
3 -5 236 -5 237 -95 -164 c-52 -90 -98 -164 -101 -164 -6 0 -88 133 -144 235
-39 69 -49 85 -55 85 -3 0 -5 -100 -5 -223 0 -122 -1 -228 -3 -234 -3 -8 -21
-13 -43 -13 l-39 0 0 43 c0 23 -1 161 -2 307 l-3 265 51 3 52 3 95 -162 95
-161 34 58 c19 33 60 105 92 161 55 98 59 102 94 105 32 3 26 5 -43 21 -217
51 -511 173 -666 277 -123 84 -222 170 -194 170 3 0 34 -22 69 -49 141 -110
353 -225 525 -285 85 -30 105 -32 76 -10 -20 16 -19 16 4 9 15 -5 26 -3 32 6
6 10 9 8 9 -8 0 -13 -5 -23 -12 -23 -6 0 -8 -3 -5 -6 4 -4 13 -2 20 5 8 6 22
8 32 5 13 -5 16 -3 13 7 -3 8 -11 13 -17 12 -6 -2 -11 3 -11 10 0 7 -17 23
-37 35 -21 11 -46 29 -55 39 -24 26 -46 43 -55 43 -5 0 -22 17 -38 37 -47 58
-76 83 -97 83 -13 0 -20 9 -24 30 -4 18 -11 27 -18 23 -6 -4 -28 -8 -48 -8
l-37 -1 31 19 c30 18 30 19 12 35 -11 10 -66 52 -124 94 -135 98 -208 166
-187 174 9 3 26 0 39 -7 15 -8 18 -14 10 -17 -10 -3 -9 -8 4 -23 22 -24 34
-24 34 1 0 14 -5 18 -17 13 -11 -5 -14 -3 -8 6 10 17 -50 72 -70 65 -8 -4 -15
-12 -15 -20 0 -20 -14 -17 -34 5 -17 19 -17 20 5 23 12 2 24 9 27 17 3 8 0 11
-7 7 -6 -4 -18 -1 -26 8 -20 20 -19 25 5 19 27 -7 25 1 -8 45 -40 54 -61 72
-67 62 -10 -16 -28 -11 -21 6 4 9 -3 28 -16 44 -62 76 -76 97 -111 163 -21 39
-47 83 -57 97 -25 36 -51 95 -70 165 -10 36 -22 59 -29 57 -8 -2 -10 4 -6 18
9 29 -65 178 -77 156 -11 -20 -29 -21 -22 -2 3 8 1 17 -5 20 -6 4 -7 13 -4 22
3 8 -1 29 -10 47 -9 18 -18 40 -21 50 -4 11 -11 15 -18 11 -8 -5 -10 5 -5 37
4 30 1 50 -9 63 -8 11 -14 16 -15 10 0 -5 -4 4 -9 19 -5 15 -7 43 -5 62 2 19
-1 32 -6 29 -5 -3 -9 20 -8 53 1 84 -10 133 -30 131 -9 -1 -45 0 -80 0 -48 2
-62 5 -54 13 7 7 38 10 81 7 l70 -4 -1 66 c-2 62 -3 65 -27 65 -127 3 -183 6
-179 9 2 3 49 7 103 10 108 5 141 15 55 17 -30 0 -76 4 -104 9 l-50 7 41 2
c80 2 164 14 164 22 0 5 -42 9 -92 9 -51 0 -100 5 -108 10 -10 7 10 10 66 10
112 0 144 7 144 33 0 26 18 124 35 197 8 30 16 66 20 80 l6 25 -11 -24 c-7
-17 -15 -21 -28 -16 -9 4 -28 8 -42 9 -14 1 -24 4 -22 9 1 4 2 16 2 27 0 16 7
20 30 20 17 0 30 5 30 10 0 6 5 10 11 10 5 0 7 -4 4 -10 -3 -5 -1 -10 5 -10 7
0 10 6 7 13 -3 8 -1 35 4 62 6 30 6 52 0 58 -5 5 -7 51 -4 103 2 53 1 94 -4
94 -5 0 -9 33 -9 73 0 39 -3 105 -5 145 -3 39 -1 72 3 72 4 0 8 12 8 28 0 21
-2 24 -10 12 -5 -8 -10 -10 -10 -4 0 5 8 19 18 30 9 10 16 29 14 42 -2 15 2
22 12 22 9 0 16 7 16 16 0 10 -5 14 -16 10 -8 -3 -12 -2 -9 4 3 6 17 10 31 10
24 0 28 7 25 46 -1 11 5 27 13 34 9 7 16 9 16 4 0 -5 8 7 18 26 10 19 16 39
13 45 -11 20 -7 43 6 38 8 -3 13 2 13 12 0 12 6 16 20 12 21 -5 45 16 35 33
-3 5 0 10 7 11 10 0 10 2 0 6 -6 2 -10 9 -6 14 3 5 13 5 24 -1 20 -11 34 9 24
35 -4 8 -1 15 5 15 6 0 11 -5 11 -11 0 -6 7 -4 15 5 8 8 15 22 15 30 0 9 5 16
10 16 6 0 10 9 10 21 0 12 8 23 20 26 11 3 20 12 20 19 0 8 5 14 10 14 6 0 15
11 22 25 6 13 25 29 42 36 17 6 26 13 19 16 -10 3 -10 7 0 18 7 7 16 10 21 7
5 -3 6 2 3 12 -5 11 2 26 20 44 17 17 28 22 31 14 6 -20 19 -13 24 13 4 20 3
23 -8 14 -9 -7 -14 -7 -14 -1 0 5 7 15 15 22 10 9 15 9 15 1 0 -6 7 -11 15
-11 18 0 20 21 3 38 -8 8 -9 12 -1 12 6 0 14 -6 17 -12 6 -17 37 19 30 35 -2
7 5 18 16 25 16 10 20 10 20 -1 0 -7 -5 -18 -12 -25 -9 -9 -9 -12 -1 -12 7 0
15 9 18 20 4 11 11 17 17 14 7 -5 9 -1 5 9 -3 9 0 18 8 21 8 3 13 11 11 18 -1
7 -1 10 1 7 5 -8 53 13 53 24 0 16 20 6 20 -10 0 -15 2 -16 10 -3 5 8 7 26 4
40 -4 22 -3 22 5 5 5 -11 10 -15 11 -10 0 6 7 2 14 -8 14 -18 14 -17 21 2 3
12 15 21 26 21 10 0 19 4 19 9 0 5 10 13 23 16 12 4 32 16 44 27 12 11 26 17
31 14 6 -3 20 6 31 20 18 23 23 25 38 13 14 -12 16 -12 11 2 -4 11 3 19 28 28
19 7 34 16 34 20 0 3 10 7 22 8 11 1 24 7 28 13 4 6 15 8 26 4 14 -4 15 -3 5
4 -16 12 3 27 24 18 8 -3 21 2 30 10 8 9 15 11 15 6 0 -6 6 -12 13 -15 10 -4
13 2 9 19 -5 26 0 29 27 14 14 -7 24 -4 41 12 18 17 24 18 32 7 8 -11 9 -10 4
4 -4 12 0 17 12 17 13 0 14 2 4 9 -11 7 -11 9 2 14 8 3 16 2 18 -2 2 -5 14
-12 27 -16 18 -5 22 -4 16 6 -6 9 -3 11 8 6 10 -3 17 -2 17 2 0 5 -6 12 -12
14 -8 4 -7 6 4 6 9 1 18 -7 21 -16 3 -14 7 -11 17 12 l13 30 6 -24 c4 -14 12
-26 19 -29 7 -2 10 2 6 11 -6 17 12 32 21 17 8 -12 45 10 45 27 0 7 4 13 10
13 5 0 7 -6 4 -14 -3 -8 -1 -17 5 -21 6 -3 11 1 11 9 0 9 7 16 15 16 8 0 15 6
15 13 1 6 7 1 14 -12 9 -16 15 -20 21 -12 4 8 18 10 35 6 15 -3 31 -2 34 4 4
6 13 8 21 4 11 -4 13 -1 9 11 -4 11 -1 16 10 16 11 0 16 9 16 32 0 38 10 31
19 -14z m-102 -30 c-3 -8 -6 -5 -6 6 -1 11 2 17 5 13 3 -3 4 -12 1 -19z m563
6 c0 -8 -4 -12 -10 -9 -5 3 -10 10 -10 16 0 5 5 9 10 9 6 0 10 -7 10 -16z m90
6 c0 -5 -5 -10 -11 -10 -5 0 -7 5 -4 10 3 6 8 10 11 10 2 0 4 -4 4 -10z m-475
-38 c-3 -3 -11 0 -18 7 -9 10 -8 11 6 5 10 -3 15 -9 12 -12z m135 8 c0 -5 -2
-10 -4 -10 -3 0 -8 5 -11 10 -3 6 -1 10 4 10 6 0 11 -4 11 -10z m50 -4 c0 -2
-7 -7 -16 -10 -8 -3 -12 -2 -9 4 6 10 25 14 25 6z m443 -95 c-2 -6 2 -11 7
-11 6 0 10 -4 10 -10 0 -22 -28 -8 -33 15 -3 17 0 24 7 22 6 -3 10 -10 9 -16z
m177 -86 c0 -8 -2 -15 -4 -15 -2 0 -6 7 -10 15 -3 8 -1 15 4 15 6 0 10 -7 10
-15z m-1690 -16 c0 -5 -4 -7 -10 -4 -5 3 -10 1 -10 -4 0 -6 -8 -11 -17 -11
-15 0 -14 2 3 15 23 17 34 19 34 4z m1685 -29 c3 -5 1 -10 -4 -10 -6 0 -11 5
-11 10 0 6 2 10 4 10 3 0 8 -4 11 -10z m-1833 -62 c-7 -7 -12 -8 -12 -2 0 14
12 26 19 19 2 -3 -1 -11 -7 -17z m2048 -33 c0 -8 -4 -15 -9 -15 -11 0 -41 57
-34 64 8 7 43 -33 43 -49z m164 -176 c-3 -5 -10 -7 -15 -3 -5 3 -7 10 -3 15 3
5 10 7 15 3 5 -3 7 -10 3 -15z m31 -109 c3 -5 2 -10 -4 -10 -5 0 -13 5 -16 10
-3 6 -2 10 4 10 5 0 13 -4 16 -10z m95 -66 c0 -21 -4 -33 -10 -29 -17 10 -11
65 7 65 2 0 3 -16 3 -36z m52 4 c-9 -9 -15 -9 -24 0 -9 9 -7 12 12 12 19 0 21
-3 12 -12z m-490 -50 c0 -7 2 -17 2 -23 1 -5 5 -16 10 -23 4 -7 6 -14 5 -15
-2 -1 -17 -9 -33 -17 -40 -20 -56 -48 -36 -60 9 -6 10 -10 3 -10 -6 0 -15 -20
-18 -44 -6 -40 -9 -43 -38 -43 -18 -1 -27 1 -20 4 7 2 10 10 7 17 -3 7 0 25 5
39 6 15 7 27 3 27 -4 0 -8 16 -9 36 -1 27 3 37 16 41 9 2 25 20 36 38 10 19
21 32 26 30 4 -3 10 -1 14 5 9 14 25 13 27 -2z m-642 -8 c0 -5 -2 -10 -4 -10
-3 0 -8 5 -11 10 -3 6 -1 10 4 10 6 0 11 -4 11 -10z m-11 -73 c-2 -1 -12 -9
-21 -16 -15 -12 -18 -11 -18 3 0 10 8 16 22 16 12 0 19 -1 17 -3z m963 -19
c-7 -7 -12 -8 -12 -2 0 14 12 26 19 19 2 -3 -1 -11 -7 -17z m-717 -45 c3 -13
2 -23 -2 -23 -15 0 -49 29 -35 30 6 0 12 8 12 17 0 21 15 6 25 -24z m1010 18
c3 -5 1 -12 -5 -16 -5 -3 -10 1 -10 9 0 18 6 21 15 7z m-2504 -44 c-10 -9 -11
-8 -5 6 3 10 9 15 12 12 3 -3 0 -11 -7 -18z m1554 -46 c3 -5 1 -12 -5 -16 -5
-3 -10 1 -10 9 0 18 6 21 15 7z m-45 -21 c0 -5 -2 -10 -4 -10 -3 0 -8 5 -11
10 -3 6 -1 10 4 10 6 0 11 -4 11 -10z m-70 -72 c0 -16 -3 -19 -11 -11 -6 6 -8
16 -5 22 11 17 16 13 16 -11z m1200 -8 c0 -5 -4 -10 -10 -10 -5 0 -10 5 -10
10 0 6 5 10 10 10 6 0 10 -4 10 -10z m-2590 -37 c0 -14 -3 -13 -20 5 -11 12
-20 24 -20 27 0 3 9 1 20 -5 11 -6 20 -18 20 -27z m-325 -15 c10 -24 26 -27
83 -15 25 5 32 3 32 -8 0 -8 18 -22 40 -31 22 -9 40 -20 40 -24 0 -22 -14 -40
-30 -40 -11 0 -22 -5 -26 -11 -5 -8 -10 -6 -16 5 -12 21 -30 20 -73 -4 -20
-11 -47 -20 -60 -20 -38 0 -75 -21 -76 -44 -1 -15 -3 -16 -6 -5 -3 14 -11 15
-47 6 -24 -5 -60 -7 -81 -3 l-37 7 7 47 c4 26 8 52 8 59 0 6 11 16 23 22 13 6
26 22 30 36 4 16 12 25 23 23 9 -1 22 2 30 7 9 5 16 5 18 -1 4 -12 71 -6 79 7
10 16 29 9 39 -13z m625 13 c0 -5 -7 -14 -15 -21 -13 -10 -15 -9 -15 9 0 12 6
21 15 21 8 0 15 -4 15 -9z m-85 -10 c-21 -21 -125 -61 -125 -48 0 7 26 22 58
33 67 25 80 28 67 15z m290 -38 c-4 -10 -9 -27 -12 -38 -4 -20 -4 -20 11 -1
17 21 22 11 6 -14 -5 -8 -12 -11 -16 -7 -4 4 -14 -5 -21 -20 -13 -29 -12 -18
7 55 6 23 16 42 21 42 7 0 8 -7 4 -17z m1275 -58 c0 -12 -19 -12 -23 0 -4 9
-1 12 9 8 7 -3 14 -7 14 -8z m-1217 -15 c-3 -12 -8 -19 -11 -16 -5 6 5 36 12
36 2 0 2 -9 -1 -20z m-43 -75 c-29 -47 -37 -39 -9 9 12 20 24 35 26 32 3 -3
-5 -21 -17 -41z m2155 -64 c3 -5 1 -12 -5 -16 -5 -3 -10 1 -10 9 0 18 6 21 15
7z m-2184 -47 c-5 -21 -9 -30 -10 -19 -1 24 10 67 15 62 3 -2 0 -22 -5 -43z
m797 -44 l-1 -45 -8 45 c-4 25 -7 56 -7 70 l0 25 8 -25 c4 -14 8 -45 8 -70z
m89 13 c-3 -10 -5 -2 -5 17 0 19 2 27 5 18 2 -10 2 -26 0 -35z m1298 37 c3 -5
-1 -10 -9 -10 -9 0 -16 5 -16 10 0 6 4 10 9 10 6 0 13 -4 16 -10z m-2295 -110
c-24 -58 -54 -75 -142 -79 -59 -2 -79 0 -73 8 3 7 16 9 27 6 10 -4 46 -4 79 0
56 7 62 10 85 46 13 21 25 53 25 71 2 32 2 32 6 4 3 -15 -1 -41 -7 -56z m1001
-56 c38 -41 80 -48 248 -40 85 3 153 4 150 2 -2 -2 -77 -10 -167 -16 l-163
-13 -48 34 c-52 35 -62 59 -60 139 1 25 4 18 10 -24 6 -38 16 -68 30 -82z
m-978 -37 c-26 -45 -82 -71 -125 -58 -33 9 -32 9 16 10 41 1 53 6 82 35 31 31
34 39 36 103 l2 68 3 -63 c3 -48 0 -71 -14 -95z m946 -17 c17 -24 42 -40 86
-56 19 -7 19 -8 -2 -11 -12 -2 -39 5 -61 16 -36 18 -42 26 -51 71 -6 28 -10
74 -10 103 2 49 2 48 11 -23 5 -44 16 -85 27 -100z m72 68 c16 -13 39 -18 91
-18 61 0 69 2 64 17 -4 9 -1 20 6 25 18 11 88 10 88 -2 0 -5 -18 -10 -40 -10
-29 0 -40 -4 -40 -15 0 -12 15 -15 68 -16 l67 -2 -60 -7 c-183 -23 -265 -5
-279 60 -9 49 -5 71 5 25 5 -22 19 -48 30 -57z m202 55 c-7 -2 -19 -2 -25 0
-7 3 -2 5 12 5 14 0 19 -2 13 -5z m110 0 c-7 -2 -19 -2 -25 0 -7 3 -2 5 12 5
14 0 19 -2 13 -5z m-653 -63 c0 -41 -5 -56 -29 -82 l-29 -33 -124 -2 c-163 -3
-200 12 -197 84 1 21 3 23 6 8 3 -11 14 -32 25 -47 16 -23 27 -28 63 -28 52 0
75 8 75 25 0 9 11 12 40 8 32 -5 40 -2 40 10 0 17 -56 41 -65 27 -3 -4 0 -10
6 -12 6 -2 -9 -4 -32 -5 l-44 -2 30 25 c17 13 24 24 17 24 -20 0 -70 -28 -75
-42 -4 -10 -8 -10 -15 1 -8 12 1 22 41 48 28 18 60 33 71 33 31 0 116 -42 116
-57 0 -11 -4 -11 -22 1 -13 8 -39 17 -58 20 l-35 6 38 -19 c56 -27 64 -38 45
-57 -9 -9 -31 -20 -49 -24 -33 -8 -32 -8 14 -9 83 -2 137 45 137 119 0 16 2
30 5 30 3 0 5 -22 5 -50z m424 21 c-2 -3 -12 3 -22 13 -16 17 -16 18 5 5 12
-7 20 -15 17 -18z m-1306 0 c11 -7 11 -9 0 -13 -8 -3 -22 0 -33 8 -18 14 -18
14 1 14 10 0 25 -4 32 -9z m248 -55 c-10 -55 -78 -107 -138 -105 -30 0 -29 1
15 13 63 17 106 58 114 111 3 22 8 34 11 27 2 -7 1 -28 -2 -46z m-76 -1 c-22
-23 -30 -25 -109 -23 l-86 1 83 6 c66 5 86 11 104 29 30 30 37 18 8 -13z
m1152 -59 l73 3 -69 -9 c-62 -8 -75 -6 -115 13 -25 12 -47 28 -49 35 -2 7 17
0 42 -16 41 -27 53 -29 118 -26z m-673 13 c-22 -14 -33 -10 -19 6 7 8 17 12
22 9 6 -4 5 -10 -3 -15z m291 -37 c0 -11 -79 -92 -90 -92 -18 0 -11 16 13 29
12 6 30 25 39 41 16 28 38 41 38 22z m528 1 c-10 -2 -28 -2 -40 0 -13 2 -5 4
17 4 22 1 32 -1 23 -4z m-1011 -18 c3 -9 3 -19 -1 -22 -7 -7 -36 16 -36 28 0
15 30 10 37 -6z m898 5 c-27 -4 -77 -14 -109 -23 -54 -15 -62 -15 -84 -1 -13
9 -21 18 -18 22 4 3 12 0 18 -6 16 -16 59 -15 99 3 19 8 59 14 89 13 l55 -1
-50 -7z m231 -8 c-3 -5 -51 -14 -108 -21 -57 -7 -128 -21 -158 -31 -64 -21
-76 -19 -29 6 18 9 90 24 159 34 69 10 129 18 133 19 5 0 6 -3 3 -7z m-1371
-11 c-6 -4 -23 -11 -40 -14 l-30 -6 30 14 c35 16 54 19 40 6z m-238 -17 c-3
-3 -12 -4 -19 -1 -8 3 -5 6 6 6 11 1 17 -2 13 -5z m1151 -22 c-18 -2 -28 -10
-31 -25 -4 -20 -4 -19 -6 4 -2 36 16 51 43 36 20 -12 20 -12 -6 -15z m-870 -7
c17 -37 15 -41 -8 -12 -22 27 -25 37 -12 37 5 0 14 -11 20 -25z m349 -31 c70
-14 149 -12 182 5 28 15 39 14 16 -2 -11 -8 -41 -20 -67 -27 -38 -10 -48 -17
-49 -34 -1 -19 -2 -18 -8 4 -5 18 -16 26 -46 33 -86 17 -112 28 -136 54 l-24
27 33 -23 c18 -13 62 -29 99 -37z m407 42 c-6 -15 -27 -25 -118 -53 -49 -15
-62 -24 -77 -53 -14 -26 -19 -30 -19 -14 0 29 51 74 91 81 26 4 96 33 126 52
1 0 0 -5 -3 -13z m-837 -22 c-3 -3 -12 -4 -19 -1 -8 3 -5 6 6 6 11 1 17 -2 13
-5z m318 -25 c3 -4 -15 -3 -42 2 -26 5 -51 13 -56 18 -5 5 14 3 41 -3 28 -6
53 -14 57 -17z m555 -8 c-6 -12 -41 -36 -79 -55 -55 -27 -71 -31 -87 -22 -10
6 -20 19 -20 29 -2 20 14 23 22 3 3 -8 12 -17 19 -20 29 -11 144 62 146 92 0
9 3 12 5 5 3 -7 0 -21 -6 -32z m453 32 c-7 -2 -19 -2 -25 0 -7 3 -2 5 12 5 14
0 19 -2 13 -5z m-1566 -9 c-3 -3 -12 -4 -19 -1 -8 3 -5 6 6 6 11 1 17 -2 13
-5z m1510 0 c-3 -3 -12 -4 -19 -1 -8 3 -5 6 6 6 11 1 17 -2 13 -5z m-1460 -10
c-3 -3 -12 -4 -19 -1 -8 3 -5 6 6 6 11 1 17 -2 13 -5z m2927 -99 c14 -26 26
-55 26 -64 0 -9 -18 17 -40 57 -22 40 -40 78 -40 85 0 15 22 -16 54 -78z
m-2162 33 c-14 -15 -22 -18 -22 -9 0 15 32 43 39 35 3 -3 -5 -14 -17 -26z
m-259 0 c8 -27 6 -29 -20 -22 -19 5 -20 9 -10 25 15 25 23 24 30 -3z m66 -12
c-3 -3 -11 5 -18 17 -13 21 -12 21 5 5 10 -10 16 -20 13 -22z m2411 -60 c0 5
4 4 8 -1 4 -6 18 -16 32 -22 25 -12 25 -12 -9 -12 -35 -1 -60 20 -60 49 0 11
3 10 14 -4 8 -11 15 -16 15 -10z m110 -26 c0 -5 -5 -10 -11 -10 -5 0 -7 5 -4
10 3 6 8 10 11 10 2 0 4 -4 4 -10z m-3157 -182 c26 -12 46 -22 44 -24 -2 -2
-35 3 -73 11 -38 8 -96 15 -128 15 -63 0 -68 8 -14 20 47 10 115 1 171 -22z
m3017 22 c0 -5 -7 -7 -15 -4 -9 4 -15 0 -15 -9 0 -9 -14 -17 -39 -21 -85 -13
-171 -100 -185 -187 -10 -65 -30 -47 -23 22 4 46 2 62 -9 66 -24 9 -16 31 18
47 39 20 38 20 38 -1 0 -14 3 -13 16 5 8 12 21 22 29 22 7 0 33 12 56 26 24
14 37 24 29 21 -8 -2 -25 -7 -37 -11 -33 -11 -28 10 5 22 35 13 132 15 132 2z
m-1290 -10 c19 -6 10 -8 -35 -9 -57 -1 -167 -15 -210 -27 -19 -6 -19 -5 1 9
11 9 36 20 55 25 41 12 154 13 189 2z m1345 0 c7 -12 -2 -12 -30 0 -19 8 -19
9 2 9 12 1 25 -3 28 -9z m-4508 -41 c35 -17 43 -26 42 -47 0 -25 -1 -26 -9 -6
-33 83 -160 63 -160 -26 0 -52 27 -84 73 -84 45 0 67 19 67 56 0 37 -46 86
-63 69 -9 -9 -9 -14 -1 -19 19 -12 35 -50 24 -57 -5 -3 -10 1 -10 9 0 9 -9 25
-20 36 -11 11 -20 15 -20 8 0 -6 -3 -8 -7 -5 -9 9 27 47 44 47 24 0 63 -47 63
-77 1 -27 1 -27 15 -9 18 23 20 7 4 -27 -13 -28 -58 -57 -89 -57 -44 0 -109
55 -110 93 0 38 29 88 62 102 43 19 44 19 95 -6z m143 3 c0 -4 -10 -13 -22
-21 -23 -14 -23 -14 -4 8 20 22 26 25 26 13z m154 -19 c-10 -43 -18 -46 -70
-30 l-49 15 38 2 c51 3 54 4 63 13 4 4 -7 7 -24 7 -17 0 -34 5 -37 10 -4 6 12
10 40 10 44 0 45 -1 39 -27z m-198 -57 c-1 -37 -16 -39 -16 -2 0 19 7 36 15
36 1 0 1 -15 1 -34z m1309 12 c18 -8 25 -19 26 -42 1 -17 2 -45 3 -63 0 -17
-1 -30 -3 -27 -2 2 -12 -6 -22 -18 -11 -11 -19 -18 -19 -14 0 4 -6 4 -12 -1
-38 -23 -92 -7 -137 41 -19 20 -22 28 -12 40 10 12 16 36 20 79 1 4 7 7 15 7
10 0 16 -14 18 -42 2 -33 8 -45 27 -55 38 -18 88 13 75 47 -9 23 -15 60 -10
60 3 0 17 -5 31 -12z m1722 -7 c6 -10 14 -38 18 -62 5 -36 3 -49 -15 -71 -24
-31 -80 -46 -115 -30 -13 6 -25 8 -28 4 -2 -4 -2 -2 -1 5 2 6 -8 19 -22 27
-24 16 -32 50 -15 60 5 3 7 14 4 24 -2 10 3 24 11 31 9 8 16 10 16 5 0 -5 5
-2 10 6 7 11 8 3 4 -27 -6 -37 -4 -43 20 -59 26 -16 28 -16 54 3 27 21 33 50
17 86 -10 24 26 23 42 -2z m-3200 -57 c-9 -9 -28 6 -21 18 4 6 10 6 17 -1 6
-6 8 -13 4 -17z m198 -12 c-3 -3 -11 0 -18 7 -9 10 -8 11 6 5 10 -3 15 -9 12
-12z m155 -1 c0 -9 -129 -5 -139 5 -2 2 28 4 67 4 40 0 72 -4 72 -9z m2935
-23 c-4 -18 -14 -45 -21 -60 -20 -39 -10 -35 16 7 27 44 60 48 60 6 0 -16 -6
-34 -14 -41 -8 -6 -13 -17 -10 -24 6 -15 -53 -40 -135 -57 -60 -13 -146 -7
-231 16 -106 28 -210 14 -210 -28 0 -12 22 -42 50 -68 76 -75 197 -129 340
-154 41 -7 63 -13 48 -14 -16 -1 -28 -6 -28 -12 0 -8 16 -10 52 -6 37 5 59 14
80 33 15 15 30 25 33 22 9 -8 -90 -92 -117 -100 -20 -5 -19 -6 8 -7 19 -1 48
10 75 29 61 41 71 37 16 -7 -30 -24 -42 -40 -34 -45 15 -9 -34 -28 -74 -28
-19 0 -28 -4 -23 -11 4 -7 23 -9 53 -4 34 5 56 16 83 43 21 19 40 33 43 30 3
-3 -14 -23 -38 -45 l-44 -41 -109 -8 -109 -8 69 -7 c84 -9 213 4 229 23 7 7
23 22 37 33 14 11 7 0 -15 -25 -43 -49 -69 -58 -182 -59 -34 -1 -65 -5 -68
-11 -3 -5 -21 -10 -40 -10 -55 0 -133 -20 -139 -36 -3 -8 -1 -14 3 -14 5 0 11
5 13 10 6 19 132 32 275 28 79 -2 143 -6 143 -10 0 -5 -67 -8 -149 -8 -114 0
-151 -3 -160 -14 -6 -7 -27 -16 -47 -19 -19 -3 -51 -20 -70 -36 -19 -17 -39
-31 -43 -31 -5 0 -11 -10 -14 -22 -4 -12 -9 -19 -12 -16 -3 3 1 23 9 44 l16
39 -20 -25 c-11 -14 -23 -35 -26 -47 -5 -20 -8 -21 -21 -7 -14 14 -13 18 8 42
40 44 57 71 21 33 l-34 -36 7 60 c5 43 4 57 -4 50 -6 -6 -13 -33 -16 -60 -9
-69 -15 -69 -16 1 -1 32 -3 50 -6 39 -10 -45 -16 -50 -23 -20 l-8 30 -1 -28
c-1 -23 -5 -28 -23 -25 -22 3 -23 7 -19 75 3 71 3 72 -24 79 -23 6 -25 9 -13
21 12 12 12 26 1 96 -9 54 -12 109 -7 162 4 44 7 94 8 110 2 52 8 55 124 55
90 0 103 2 88 13 -14 10 -17 21 -11 45 9 45 25 50 52 16 24 -31 30 -27 12 9
-5 12 4 5 22 -16 42 -51 77 -67 142 -67 72 0 114 28 147 97 14 29 26 53 28 53
2 0 0 -15 -3 -32z m-1715 -38 c-17 -32 -4 -36 15 -6 24 36 42 32 54 -11 9 -32
8 -40 -6 -50 -14 -11 0 -13 79 -13 121 0 128 -3 121 -43 -2 -18 0 -52 6 -77
11 -50 -5 -261 -21 -271 -5 -3 -2 -12 7 -19 15 -13 15 -15 -3 -21 -12 -5 -24
-24 -31 -51 -7 -23 -15 -49 -17 -55 -3 -7 1 -13 10 -13 15 0 22 -30 10 -42
-12 -12 -44 5 -44 24 0 25 -18 58 -31 58 -6 0 -9 -10 -6 -22 17 -75 19 -90 8
-84 -6 4 -11 18 -11 31 0 13 -12 37 -26 52 -19 21 -24 23 -18 8 4 -11 10 -45
12 -75 2 -30 8 -60 13 -67 6 -7 6 -13 1 -17 -14 -8 -33 19 -27 36 7 18 -108
118 -136 118 -11 0 -16 5 -13 14 4 11 -22 14 -141 18 -102 3 -149 8 -158 17
-10 11 -5 12 26 7 21 -4 87 -4 145 0 94 7 101 9 62 15 -25 4 -79 8 -120 8 -41
1 -82 6 -90 11 -10 7 14 8 74 3 61 -4 87 -3 83 4 -4 6 -34 13 -67 15 -33 2
-66 10 -73 18 -10 10 -8 12 8 6 11 -5 47 -9 80 -11 l60 -4 -53 8 c-80 13 -75
21 14 22 l79 2 -95 11 c-73 8 -103 16 -124 34 -16 12 -36 22 -45 23 -11 0 -12
2 -3 6 7 3 31 -7 52 -21 33 -21 50 -26 102 -25 47 1 57 3 38 9 -14 4 -41 8
-61 9 -21 1 -43 8 -50 17 -12 15 -11 16 6 11 70 -19 132 -17 119 4 -3 5 6 9
19 9 72 0 269 95 336 162 43 43 49 53 40 70 -6 11 -27 26 -46 35 -33 13 -46
12 -167 -12 -87 -18 -148 -26 -181 -22 -63 6 -156 33 -181 52 -17 13 -16 13
16 5 46 -13 73 -11 35 2 -61 22 -86 66 -60 108 5 9 14 4 31 -16 18 -22 22 -24
18 -9 -4 12 6 6 26 -18 17 -20 45 -44 60 -52 37 -19 113 -19 149 0 33 17 76
65 87 97 6 19 9 20 12 6 2 -9 -2 -27 -8 -38z m672 -75 c4 22 8 57 8 77 0 66
20 53 21 -14 l1 -63 8 53 c13 85 20 73 21 -34 1 -72 3 -89 9 -61 11 59 20 55
20 -9 0 -33 5 -65 12 -72 9 -9 9 -15 0 -24 -14 -14 -17 -250 -3 -276 5 -9 12
-84 15 -167 11 -250 11 -247 -52 -265 -45 -12 -108 3 -122 30 -5 10 -7 42 -4
72 3 29 9 154 13 278 l8 225 3 -220 4 -220 6 165 c4 91 8 216 9 278 1 102 -1
113 -16 110 -10 -2 -18 3 -18 10 0 6 4 12 9 11 19 -2 26 31 28 136 l2 110 5
-85 c5 -75 7 -80 13 -45z m-2167 0 c29 -28 32 -51 10 -75 -14 -16 -13 -18 14
-30 17 -7 36 -18 42 -26 8 -10 38 -14 103 -15 105 -1 103 -5 -5 -14 l-77 -6
-5 -42 c-7 -53 -44 -87 -93 -87 -41 0 -89 22 -98 45 -11 29 -6 89 8 118 13 23
13 31 0 55 -19 38 -18 58 8 82 29 27 64 25 93 -5z m4375 -5 c0 -5 -2 -10 -4
-10 -3 0 -8 5 -11 10 -3 6 -1 10 4 10 6 0 11 -4 11 -10z m-2250 -169 c0 -11
-4 -23 -10 -26 -6 -4 -10 5 -10 19 0 14 5 26 10 26 6 0 10 -9 10 -19z m2264
-27 c23 -22 20 -37 -4 -22 -16 10 -24 10 -40 0 -11 -7 -20 -8 -20 -3 0 12 28
41 40 41 5 0 16 -7 24 -16z m-4237 -20 c-3 -3 -12 -4 -19 -1 -8 3 -5 6 6 6 11
1 17 -2 13 -5z m103 -2 c0 -4 -16 -6 -35 -4 -19 2 -35 6 -35 8 0 2 16 4 35 4
19 0 35 -4 35 -8z m3880 -2 c0 -5 -4 -10 -10 -10 -5 0 -10 5 -10 10 0 6 5 10
10 10 6 0 10 -4 10 -10z m-12 -30 c37 -1 43 -3 29 -11 -9 -6 -15 -14 -12 -19
3 -5 1 -11 -5 -15 -5 -3 -10 1 -10 10 0 13 -6 16 -25 11 -14 -4 -25 -2 -25 3
0 5 -2 15 -3 23 -2 7 -2 10 0 6 3 -5 26 -8 51 -8z m-3133 -30 c3 -5 1 -10 -4
-10 -6 0 -11 5 -11 10 0 6 2 10 4 10 3 0 8 -4 11 -10z m2389 -15 c-4 -8 -8
-15 -10 -15 -2 0 -4 7 -4 15 0 8 4 15 10 15 5 0 7 -7 4 -15z m1036 -148 c22
-26 14 -94 -12 -108 -11 -6 -35 -8 -54 -4 -33 6 -34 8 -34 50 0 74 60 111 100
62z m-150 3 c0 -5 -4 -10 -10 -10 -5 0 -10 5 -10 10 0 6 5 10 10 10 6 0 10 -4
10 -10z m-4250 -4 c0 -2 -9 -6 -20 -9 -11 -3 -18 -1 -14 4 5 9 34 13 34 5z
m180 -42 c0 -8 -7 -14 -15 -14 -17 0 -18 2 -9 24 7 18 24 12 24 -10z m-61 -28
c-3 -3 -11 5 -18 17 -13 21 -12 21 5 5 10 -10 16 -20 13 -22z m4438 28 c-3 -3
-12 -4 -19 -1 -8 3 -5 6 6 6 11 1 17 -2 13 -5z m-3099 -67 c6 -5 12 -7 12 -4
0 3 19 -12 42 -34 32 -30 39 -42 30 -51 -8 -8 -21 -4 -53 18 -80 55 -149 72
-309 76 l-115 2 100 6 c123 7 276 1 293 -13z m2642 3 c0 -5 -4 -10 -10 -10 -5
0 -10 -7 -10 -16 0 -8 -4 -12 -10 -9 -6 4 -5 13 3 25 13 21 27 26 27 10z m351
-40 c-13 -11 -28 -20 -35 -20 -6 0 3 9 19 20 38 25 47 25 16 0z m-3103 0 c9 0
37 -18 62 -40 56 -49 47 -53 -10 -5 -39 33 -47 35 -118 37 -73 1 -74 2 -27 8
28 4 56 5 63 3 8 -1 21 -3 30 -3z m1797 0 c43 -6 36 -8 -52 -9 l-103 -1 -40
-36 c-22 -20 -40 -32 -40 -26 0 5 18 26 40 46 36 32 46 36 93 35 28 0 75 -4
102 -9z m-241 -42 c-16 -18 -35 -38 -41 -46 -11 -11 -13 -11 -13 2 0 12 66 76
79 76 3 0 -8 -14 -25 -32z m1420 26 c17 -6 22 -24 8 -24 -5 0 -17 7 -28 15
-19 15 -8 20 20 9z m46 -14 c0 -5 -4 -10 -10 -10 -5 0 -10 5 -10 10 0 6 5 10
10 10 6 0 10 -4 10 -10z m-4260 -4 c0 -2 -8 -10 -17 -17 -16 -13 -17 -12 -4 4
13 16 21 21 21 13z m1368 -21 c-3 -3 -9 2 -12 12 -6 14 -5 15 5 6 7 -7 10 -15
7 -18z m2512 15 c0 -5 -4 -10 -10 -10 -5 0 -10 5 -10 10 0 6 5 10 10 10 6 0
10 -4 10 -10z m-860 -9 c0 -5 -13 -11 -30 -13 -29 -4 -37 1 -23 15 10 10 53 8
53 -2z m-1880 -5 c0 -9 -30 -14 -35 -6 -4 6 3 10 14 10 12 0 21 -2 21 -4z m87
-11 c3 -9 3 -18 0 -21 -7 -8 -47 15 -47 26 0 16 40 11 47 -5z m1713 9 c0 -8
-43 -43 -52 -44 -12 0 -9 25 4 38 12 12 48 17 48 6z m-2767 -76 c4 -10 8 -10
15 1 12 17 32 6 32 -18 0 -15 -11 -17 -82 -16 -78 0 -83 1 -86 23 -3 21 0 22
56 22 39 0 62 -4 65 -12z m3649 -36 c-17 -21 -35 -53 -40 -72 -6 -19 -11 -27
-11 -18 -2 28 19 71 47 101 37 39 39 34 4 -11z m131 -9 c-18 -2 -46 -17 -63
-33 -35 -32 -40 -80 -15 -133 l16 -32 -21 24 c-23 27 -28 107 -7 133 23 28 61
48 92 46 l30 -1 -32 -4z m74 -25 c19 -22 47 -88 37 -88 -2 0 -11 18 -20 40 -9
22 -26 47 -37 55 -12 8 -17 15 -11 15 6 0 20 -10 31 -22z m-3889 5 c-10 -2
-28 -2 -40 0 -13 2 -5 4 17 4 22 1 32 -1 23 -4z m3692 -23 c-6 -12 -14 -20
-17 -17 -2 3 1 14 8 26 7 11 15 18 17 16 2 -2 -2 -13 -8 -25z m-3670 -36 c0
-8 -9 -14 -21 -14 -11 0 -17 -4 -14 -10 3 -5 1 -10 -4 -10 -21 0 -11 29 12 33
12 2 3 5 -21 6 -24 0 -41 5 -38 9 8 14 86 1 86 -14z m75 16 c4 -6 -5 -10 -19
-10 -14 0 -26 5 -26 10 0 6 9 10 19 10 11 0 23 -4 26 -10z m2 -26 c-3 -3 -12
-4 -19 -1 -8 3 -5 6 6 6 11 1 17 -2 13 -5z m924 -26 c11 -21 11 -22 -4 -9 -10
7 -17 17 -17 22 0 15 9 10 21 -13z m1819 8 c0 -8 -7 -16 -15 -20 -13 -4 -14
-2 -5 14 13 23 20 26 20 6z m957 -8 c-3 -8 -6 -5 -6 6 -1 11 2 17 5 13 3 -3 4
-12 1 -19z m33 2 c-8 -5 -17 -7 -19 -4 -3 3 1 9 9 14 8 5 17 7 19 4 3 -3 -1
-9 -9 -14z m-3870 0 c0 -5 -4 -10 -10 -10 -5 0 -10 5 -10 10 0 6 5 10 10 10 6
0 10 -4 10 -10z m140 -14 c0 -11 -19 -15 -25 -6 -3 5 1 10 9 10 9 0 16 -2 16
-4z m3537 -18 c-3 -8 -6 -5 -6 6 -1 11 2 17 5 13 3 -3 4 -12 1 -19z m274 -5
c-12 -20 -14 -14 -5 12 4 9 9 14 11 11 3 -2 0 -13 -6 -23z m199 7 c0 -5 -7
-10 -15 -10 -8 0 -15 5 -15 10 0 6 7 10 15 10 8 0 15 -4 15 -10z m-79 -70 c-5
-37 -8 -41 -13 -21 -6 21 7 79 16 70 2 -2 1 -24 -3 -49z m-421 25 c0 -8 -2
-15 -4 -15 -2 0 -6 7 -10 15 -3 8 -1 15 4 15 6 0 10 -7 10 -15z m523 -27 c-2
-5 -9 -8 -15 -8 -6 0 -19 -7 -29 -16 -17 -16 -39 -12 -39 7 0 5 14 18 31 28
24 15 35 17 44 8 7 -7 11 -15 8 -19z m-2803 -58 c0 -28 -2 -30 -20 -20 -30 16
-25 50 7 50 8 0 13 -12 13 -30z m1097 8 c-3 -8 -6 -5 -6 6 -1 11 2 17 5 13 3
-3 4 -12 1 -19z m121 -1 c4 -20 -25 -34 -39 -20 -14 14 1 45 20 41 9 -2 17
-11 19 -21z m1566 4 c-15 -14 -62 -22 -69 -11 -3 5 0 8 7 5 7 -3 24 1 38 8 26
14 40 13 24 -2z m-389 -130 c-3 -6 -14 -11 -23 -11 -13 0 -13 2 4 14 21 15 30
14 19 -3z m73 -1 c-20 -11 -48 -34 -62 -52 -16 -21 -26 -27 -26 -17 0 27 77
89 110 88 8 0 -1 -9 -22 -19z m95 -41 l30 -31 17 22 c22 30 118 34 149 6 44
-40 18 -156 -34 -156 -8 0 -15 -5 -15 -10 0 -6 -7 -7 -17 -1 -10 5 -31 13 -47
17 -22 7 -32 18 -39 43 l-8 34 -19 -30 c-27 -45 -42 -50 -25 -9 17 41 19 80 5
105 -13 26 -33 31 -72 21 -30 -9 -31 -8 -14 5 30 23 54 18 89 -16z m-302 -51
c14 -26 7 -79 -12 -91 -42 -26 -98 26 -85 78 11 44 75 53 97 13z m269 -4 c0
-13 -9 -28 -20 -34 -25 -13 -26 -2 -2 16 14 10 15 15 4 26 -11 11 -14 10 -22
-2 -5 -8 -10 -23 -10 -33 0 -10 -4 -15 -10 -12 -13 8 -13 45 1 45 5 0 8 4 4 9
-6 11 23 20 43 13 6 -2 12 -15 12 -28z m-1798 -15 c13 -17 23 -34 23 -39 0 -5
3 -12 8 -16 15 -16 6 -24 -27 -24 -19 0 -56 -9 -83 -21 -53 -23 -67 -21 -164
14 -59 21 -65 25 -48 35 10 7 19 21 19 31 0 11 5 23 12 27 14 9 48 -31 48 -57
0 -23 37 -49 70 -49 37 1 73 24 77 51 5 34 24 79 34 79 5 0 19 -14 31 -31z
m-126 -24 c4 -8 0 -22 -7 -31 -11 -13 -14 -13 -21 0 -9 16 -1 46 13 46 5 0 12
-7 15 -15z m1901 -49 c4 -3 -8 -6 -25 -6 -17 0 -34 4 -37 10 -6 10 51 7 62 -4z
m-716 -39 c-8 -8 -11 -7 -11 4 0 20 13 34 18 19 3 -7 -1 -17 -7 -23z m-3141
-37 c0 -5 -4 -10 -10 -10 -5 0 -10 5 -10 10 0 6 5 10 10 10 6 0 10 -4 10 -10z
m3380 -31 c0 -6 -7 -9 -15 -5 -10 3 -17 -3 -21 -19 -3 -14 -10 -25 -15 -25 -9
0 -1 28 14 48 12 15 37 16 37 1z m123 -23 c3 -8 0 -21 -6 -30 -11 -13 -14 -13
-35 4 -13 11 -21 24 -17 30 9 15 52 12 58 -4z m227 -5 c0 -6 -4 -13 -10 -16
-5 -3 -10 1 -10 9 0 9 5 16 10 16 6 0 10 -4 10 -9z m154 0 c3 -5 -1 -14 -9
-21 -8 -7 -15 -10 -15 -7 0 3 -3 12 -6 21 -7 17 20 23 30 7z m-3340 -57 c5
-14 4 -15 -9 -4 -17 14 -19 20 -6 20 5 0 12 -7 15 -16z m66 -34 c0 -10 -31
-22 -38 -16 -2 3 -2 12 1 20 6 15 37 12 37 -4z m3130 -24 c0 -22 -16 -28 -29
-12 -9 11 -9 15 1 19 22 9 28 8 28 -7z m-1608 -24 c36 -37 -50 -74 -172 -75
-100 -1 -180 27 -180 62 0 27 15 30 187 28 108 -2 156 -6 165 -15z m958 -185
c0 -7 -6 -19 -12 -25 -10 -10 -10 -15 1 -21 7 -5 9 -11 4 -14 -15 -10 -31 26
-22 51 9 24 29 30 29 9z m40 -2 c0 -8 -4 -15 -8 -15 -5 0 -9 7 -9 15 0 8 4 15
9 15 4 0 8 -7 8 -15z m-2930 -116 c0 -6 -4 -7 -10 -4 -5 3 -10 11 -10 16 0 6
5 7 10 4 6 -3 10 -11 10 -16z m2936 -66 c-7 -7 -26 7 -26 19 0 6 6 6 15 -2 9
-7 13 -15 11 -17z m-2869 -25 c-3 -7 -5 -2 -5 12 0 14 2 19 5 13 2 -7 2 -19 0
-25z m3055 0 c-15 -15 -24 -6 -16 16 5 12 10 14 17 7 8 -8 8 -14 -1 -23z
m-1250 -8 c30 -14 42 -38 32 -64 -19 -50 -173 -69 -249 -31 -22 11 -42 28 -43
38 -5 24 24 55 62 67 41 12 164 6 198 -10z m-1012 -16 c0 -8 -5 -12 -10 -9 -6
4 -8 11 -5 16 9 14 15 11 15 -7z m1928 -16 c16 -16 15 -25 -2 -31 -8 -3 -18 5
-25 19 -8 19 -8 24 2 24 7 0 18 -5 25 -12z m32 -9 c0 -6 -4 -7 -10 -4 -5 3
-10 11 -10 16 0 6 5 7 10 4 6 -3 10 -11 10 -16z m408 -21 c-2 -6 -10 -14 -16
-16 -7 -2 -10 2 -6 12 7 18 28 22 22 4z m-3158 -79 c0 -6 -4 -7 -10 -4 -5 3
-10 11 -10 16 0 6 5 7 10 4 6 -3 10 -11 10 -16z m-55 -71 c3 -7 -1 -4 -9 6 -9
11 -16 29 -15 40 1 17 2 16 9 -6 4 -14 11 -32 15 -40z m35 52 c0 -5 -4 -10 -9
-10 -6 0 -13 5 -16 10 -3 6 1 10 9 10 9 0 16 -4 16 -10z m286 -41 c37 -29 49
-48 31 -50 -11 -1 -87 62 -87 73 0 15 17 8 56 -23z m2474 10 c0 -11 -4 -17
-10 -14 -5 3 -10 13 -10 21 0 8 5 14 10 14 6 0 10 -9 10 -21z m-80 -44 c0 -8
-4 -15 -10 -15 -5 0 -10 7 -10 15 0 8 5 15 10 15 6 0 10 -7 10 -15z m-2384
-60 c19 -16 26 -27 19 -34 -14 -14 -92 -20 -105 -7 -14 14 -12 26 5 26 8 0 15
5 15 10 0 6 -7 10 -15 10 -8 0 -15 -4 -15 -10 0 -5 -7 -10 -15 -10 -8 0 -15 9
-15 19 0 15 5 18 21 14 19 -5 20 -4 10 15 -6 11 -11 24 -11 27 0 8 70 -32 106
-60z m419 55 c3 -5 1 -10 -4 -10 -6 0 -11 5 -11 10 0 6 2 10 4 10 3 0 8 -4 11
-10z m2165 -5 c0 -8 -4 -15 -9 -15 -13 0 -22 16 -14 24 11 11 23 6 23 -9z
m-458 -107 c-9 -9 -12 -7 -12 12 0 19 3 21 12 12 9 -9 9 -15 0 -24z m260 -37
c4 -4 30 -70 58 -146 27 -77 76 -210 109 -295 32 -85 55 -159 51 -163 -4 -5
-27 -7 -51 -5 l-43 3 -31 88 -30 87 -109 -2 -109 -3 -30 -87 -29 -88 -49 0
c-27 0 -49 3 -49 8 0 4 46 133 101 287 56 154 103 291 105 305 1 14 3 26 3 27
2 5 96 -10 103 -16z m-938 -13 c18 -28 216 -563 216 -583 0 -11 -12 -15 -49
-15 l-49 0 -28 83 -29 82 -111 3 -112 3 -28 -83 -29 -83 -47 -3 c-36 -2 -48 0
-48 11 0 22 188 545 211 589 15 28 84 25 103 -4z m516 3 c0 -6 -4 -13 -10 -16
-5 -3 -10 1 -10 9 0 9 5 16 10 16 6 0 10 -4 10 -9z m-119 -34 c-13 -13 -26 -3
-16 12 3 6 11 8 17 5 6 -4 6 -10 -1 -17z m-1521 -337 c0 -5 -5 -10 -11 -10 -5
0 -7 5 -4 10 3 6 8 10 11 10 2 0 4 -4 4 -10z m-30 -381 c0 -12 7 -19 18 -19
28 0 42 -21 42 -62 0 -27 -4 -38 -15 -38 -10 0 -15 10 -15 34 0 49 -28 57 -32
9 -2 -20 -9 -38 -15 -41 -10 -3 -13 15 -13 66 0 38 3 72 6 75 11 10 24 -3 24
-24z m300 21 c0 -5 -5 -10 -11 -10 -7 0 -9 -10 -5 -24 3 -14 2 -28 -4 -31 -5
-3 -10 -22 -10 -41 0 -53 -27 -45 -32 10 -4 57 15 106 42 106 11 0 20 -4 20
-10z m-352 -11 c-2 -6 -8 -10 -13 -10 -6 1 -12 -24 -15 -56 -7 -77 -30 -85
-30 -10 0 46 -3 55 -20 60 -39 10 -20 27 31 27 32 0 49 -4 47 -11z m2462 -59
l0 -70 -33 0 c-40 0 -57 15 -57 51 0 29 14 45 45 51 11 2 21 9 21 16 2 20 4
22 14 22 6 0 10 -30 10 -70z m-1949 39 c18 -18 19 -22 5 -32 -16 -12 -12 -57
5 -57 5 0 9 -5 9 -11 0 -6 -10 -9 -22 -7 -29 4 -54 79 -35 109 15 23 13 23 38
-2z m-131 -25 c0 -32 18 -66 31 -59 5 4 9 22 9 41 0 47 17 43 25 -7 9 -49 -1
-62 -46 -57 -33 3 -34 4 -37 56 -2 31 1 52 7 52 6 0 11 -12 11 -26z m-170 -4
c14 -26 5 -40 -26 -40 -13 0 -24 -5 -24 -11 0 -7 10 -9 25 -7 17 4 25 1 25 -8
0 -17 -51 -19 -68 -2 -7 7 -12 24 -12 38 0 14 5 31 12 38 19 19 56 14 68 -8z
m360 -14 c0 -38 17 -57 31 -35 5 8 9 26 9 42 0 41 17 32 24 -14 8 -51 3 -59
-39 -59 -24 0 -38 6 -45 19 -11 22 -13 64 -3 74 15 15 23 5 23 -27z m150 24
c0 -5 -6 -13 -14 -17 -8 -4 -16 -21 -18 -37 -1 -16 -9 -31 -15 -34 -9 -2 -13
11 -13 47 0 50 1 51 30 51 17 0 30 -4 30 -10z m100 -9 c5 -11 7 -33 4 -50 -5
-25 -11 -31 -33 -31 -34 0 -51 17 -51 50 0 14 5 31 12 38 18 18 56 14 68 -7z
m180 -32 l0 -50 -42 3 c-41 3 -43 5 -46 38 -4 40 16 60 60 60 27 0 28 -2 28
-51z m110 32 c16 -30 13 -81 -5 -81 -10 0 -15 10 -15 33 0 19 -3 37 -7 40 -12
13 -33 -15 -33 -44 0 -16 -4 -29 -10 -29 -5 0 -10 23 -10 50 l0 50 35 0 c24 0
37 -6 45 -19z m110 0 c0 -31 19 -35 30 -7 9 25 30 36 30 17 0 -24 -54 -131
-66 -131 -17 0 -18 12 -3 27 9 9 8 22 -5 53 -20 50 -20 60 -1 60 8 0 15 -9 15
-19z m159 5 c16 -19 10 -66 -10 -79 -26 -16 -68 0 -75 29 -12 47 55 87 85 50z
m63 -23 c4 -52 26 -54 34 -4 7 45 23 55 25 16 1 -14 2 -35 2 -47 1 -19 -4 -24
-31 -26 -44 -4 -62 12 -62 59 0 53 27 54 32 2z m158 28 c0 -5 -9 -12 -20 -16
-12 -4 -22 -19 -26 -41 -9 -51 -24 -41 -24 16 l0 50 35 0 c19 0 35 -4 35 -9z
m133 -6 c1 -5 -7 -10 -18 -10 -15 0 -20 -7 -20 -25 0 -18 5 -25 18 -24 9 1 17
-4 17 -12 0 -17 -41 -19 -58 -2 -16 16 -15 61 0 76 15 15 57 12 61 -3z m104
-15 c10 -20 10 -29 -1 -45 -29 -43 -86 -23 -86 30 0 49 64 60 87 15z m165 16
c4 -6 8 -28 8 -49 0 -48 -23 -46 -28 1 -5 46 -32 43 -32 -3 0 -24 -5 -35 -15
-35 -10 0 -15 11 -15 35 0 24 -5 35 -15 35 -10 0 -15 -11 -15 -35 0 -19 -4
-35 -10 -35 -5 0 -10 8 -10 19 0 10 -3 33 -6 50 l-6 31 68 -1 c40 -1 72 -6 76
-13z m126 -40 c2 -36 0 -47 -10 -44 -7 3 -14 19 -16 37 -4 43 -37 40 -37 -3 0
-44 -21 -43 -29 1 -10 65 -10 64 42 61 l47 -3 3 -49z m102 35 c5 -11 10 -33
10 -50 0 -29 -2 -31 -40 -31 -36 0 -40 3 -40 24 0 16 7 27 20 31 29 9 25 28
-5 21 -25 -6 -36 8 -12 17 27 12 57 6 67 -12z m103 12 c3 -5 8 -27 12 -50 6
-36 4 -43 -9 -43 -12 0 -16 10 -16 35 0 24 -5 35 -15 35 -10 0 -15 -11 -15
-35 0 -24 -5 -35 -15 -35 -11 0 -15 12 -15 50 l0 50 34 0 c19 0 37 -3 39 -7z"/>
<path d="M2500 5960 c0 -5 5 -10 10 -10 6 0 10 5 10 10 0 6 -4 10 -10 10 -5 0
-10 -4 -10 -10z"/>
<path d="M2550 5949 c0 -5 5 -7 10 -4 6 3 10 8 10 11 0 2 -4 4 -10 4 -5 0 -10
-5 -10 -11z"/>
<path d="M2926 5882 c-3 -6 1 -13 10 -16 23 -9 28 -2 10 13 -8 7 -17 8 -20 3z"/>
<path d="M2970 5857 c0 -10 7 -13 19 -10 12 3 20 -2 24 -16 5 -22 27 -29 27
-9 0 6 -3 8 -7 5 -3 -4 -11 3 -17 15 -13 27 -46 37 -46 15z"/>
<path d="M3070 5806 c0 -9 5 -16 10 -16 6 0 10 4 10 9 0 6 -4 13 -10 16 -5 3
-10 -1 -10 -9z"/>
<path d="M1717 5783 c-16 -8 -27 -17 -24 -19 7 -7 57 18 57 28 0 4 -1 8 -2 7
-2 -1 -16 -8 -31 -16z"/>
<path d="M3418 5613 c7 -3 16 -2 19 1 4 3 -2 6 -13 5 -11 0 -14 -3 -6 -6z"/>
<path d="M1231 5553 c-7 -8 -11 -16 -8 -19 2 -2 10 2 17 11 17 20 9 27 -9 8z"/>
<path d="M2990 5560 c0 -5 5 -10 11 -10 5 0 7 5 4 10 -3 6 -8 10 -11 10 -2 0
-4 -4 -4 -10z"/>
<path d="M3530 5506 c0 -2 7 -7 16 -10 8 -3 12 -2 9 4 -6 10 -25 14 -25 6z"/>
<path d="M1581 5447 c2 -1 13 -9 24 -17 19 -14 19 -14 6 3 -7 9 -18 17 -24 17
-6 0 -8 -1 -6 -3z"/>
<path d="M1510 5430 c-8 -5 -11 -12 -8 -15 4 -4 17 0 30 9 24 17 5 23 -22 6z"/>
<path d="M1422 5398 c-35 -22 -38 -37 -4 -19 12 6 29 11 39 10 14 0 14 -2 3
-6 -8 -3 -33 -13 -55 -23 -22 -9 -54 -23 -72 -30 -36 -14 -60 -37 -49 -47 4
-4 11 -2 15 5 4 8 25 19 47 27 33 11 40 11 49 -2 10 -14 13 -13 27 0 9 9 19
13 23 9 3 -4 11 1 17 11 7 13 17 17 32 13 13 -3 31 1 42 9 18 14 18 14 -8 15
-18 0 -33 9 -44 25 -19 29 -19 29 -62 3z"/>
<path d="M1000 5349 c0 -5 5 -7 10 -4 6 3 10 8 10 11 0 2 -4 4 -10 4 -5 0 -10
-5 -10 -11z"/>
<path d="M2755 5270 c3 -5 8 -10 11 -10 2 0 4 5 4 10 0 6 -5 10 -11 10 -5 0
-7 -4 -4 -10z"/>
<path d="M1585 5200 c3 -5 8 -10 11 -10 2 0 4 5 4 10 0 6 -5 10 -11 10 -5 0
-7 -4 -4 -10z"/>
<path d="M2026 5175 c-16 -12 -17 -18 -8 -27 9 -9 12 -9 12 1 0 8 8 20 18 27
9 7 13 13 7 13 -5 0 -19 -6 -29 -14z"/>
<path d="M2450 5140 c6 -11 15 -18 21 -15 13 9 11 13 -12 25 -19 11 -20 10 -9
-10z"/>
<path d="M2526 5152 c-4 -7 -14 -11 -21 -8 -11 4 -25 -13 -25 -30 0 -3 18 -4
40 -2 22 1 40 6 40 11 0 4 4 5 10 2 6 -4 7 1 3 11 -4 11 -8 13 -11 6 -6 -18
-20 -15 -24 6 -3 13 -5 14 -12 4z"/>
<path d="M2177 5120 c-10 -16 -14 -30 -10 -30 11 0 43 37 43 50 0 19 -16 10
-33 -20z"/>
<path d="M2126 5121 c-3 -4 -19 -11 -35 -14 -43 -9 -48 -34 -5 -29 20 3 34 10
34 18 0 8 9 14 20 14 11 0 20 5 20 10 0 12 -27 13 -34 1z"/>
<path d="M1320 5061 c0 -5 5 -13 10 -16 6 -3 10 -2 10 4 0 5 -4 13 -10 16 -5
3 -10 2 -10 -4z"/>
<path d="M2214 5049 c-3 -6 -1 -16 5 -22 8 -8 11 -5 11 11 0 24 -5 28 -16 11z"/>
<path d="M2486 5049 c4 -8 0 -9 -15 -4 -27 8 -27 -2 2 -26 24 -20 70 -28 50
-8 -6 6 -9 18 -6 27 4 10 2 13 -5 8 -7 -4 -12 -2 -12 3 0 6 -5 11 -11 11 -5 0
-7 -5 -3 -11z"/>
<path d="M2738 5023 c-21 -5 -23 -24 -6 -41 13 -13 38 2 38 24 0 16 -10 22
-32 17z"/>
<path d="M1955 5010 c3 -5 11 -10 16 -10 6 0 7 5 4 10 -3 6 -11 10 -16 10 -6
0 -7 -4 -4 -10z"/>
<path d="M2558 4983 c6 -2 18 -2 25 0 6 3 1 5 -13 5 -14 0 -19 -2 -12 -5z"/>
<path d="M2145 4971 c-3 -5 2 -11 10 -15 8 -3 17 -1 20 3 3 5 -2 11 -10 15 -8
3 -17 1 -20 -3z"/>
<path d="M660 4965 c0 -5 5 -17 10 -25 5 -8 10 -10 10 -5 0 6 -5 17 -10 25 -5
8 -10 11 -10 5z"/>
<path d="M2130 4934 c0 -8 5 -12 10 -9 6 4 8 11 5 16 -9 14 -15 11 -15 -7z"/>
<path d="M2580 4939 c0 -5 5 -7 10 -4 6 3 10 8 10 11 0 2 -4 4 -10 4 -5 0 -10
-5 -10 -11z"/>
<path d="M4140 4923 c-22 -8 -50 -35 -50 -47 0 -6 6 -3 14 6 17 23 59 38 84
31 11 -3 26 -18 32 -34 7 -16 16 -26 21 -23 12 7 -16 60 -36 68 -19 7 -44 7
-65 -1z"/>
<path d="M2680 4883 c0 -13 5 -23 10 -23 13 0 13 11 0 30 -8 12 -10 11 -10 -7z"/>
<path d="M4145 4870 c-4 -6 -4 -14 0 -18 4 -4 10 -1 12 6 6 15 29 16 36 2 3
-6 4 -5 3 2 -3 17 -42 23 -51 8z"/>
<path d="M2090 4825 c0 -22 4 -35 8 -29 4 6 16 16 27 22 17 10 17 11 3 12 -9
0 -22 8 -27 18 -8 13 -10 9 -11 -23z"/>
<path d="M2740 4811 c0 -5 5 -13 10 -16 6 -3 10 -2 10 4 0 5 -4 13 -10 16 -5
3 -10 2 -10 -4z"/>
<path d="M2690 4784 c38 -49 50 -55 50 -25 0 10 -8 21 -17 25 -10 3 -25 9 -33
13 -13 6 -13 4 0 -13z"/>
<path d="M4040 4786 c0 -9 5 -16 10 -16 6 0 10 4 10 9 0 6 -4 13 -10 16 -5 3
-10 -1 -10 -9z"/>
<path d="M2080 4770 c0 -5 5 -10 10 -10 6 0 10 5 10 10 0 6 -4 10 -10 10 -5 0
-10 -4 -10 -10z"/>
<path d="M2370 4268 c0 -4 4 -8 9 -8 6 0 12 4 15 8 3 5 -1 9 -9 9 -8 0 -15 -4
-15 -9z"/>
<path d="M4253 3695 c-3 -9 -3 -18 -1 -21 3 -3 8 4 11 16 6 23 -1 27 -10 5z"/>
<path d="M660 2767 c0 -29 135 -291 195 -379 30 -43 55 -81 55 -84 0 -3 11
-19 25 -36 51 -61 14 11 -84 162 -31 47 -86 146 -123 220 -37 74 -67 127 -68
117z"/>
<path d="M3627 1954 c-15 -21 -16 -24 -2 -24 8 0 15 6 15 14 0 8 5 16 12 18 7
3 8 7 3 10 -6 3 -18 -5 -28 -18z"/>
<path d="M3549 1888 c-7 -13 -17 -26 -23 -30 -6 -5 -7 -8 -1 -8 17 0 32 14 39
38 4 12 5 22 2 22 -3 0 -11 -10 -17 -22z"/>
<path d="M1210 1821 c0 -11 50 -44 57 -38 5 6 -37 47 -49 47 -4 0 -8 -4 -8 -9z"/>
<path d="M3446 1763 c-6 -14 -5 -15 5 -6 7 7 10 15 7 18 -3 3 -9 -2 -12 -12z"/>
<path d="M3375 1640 c3 -5 8 -10 11 -10 2 0 4 5 4 10 0 6 -5 10 -11 10 -5 0
-7 -4 -4 -10z"/>
<path d="M3320 1531 c0 -6 5 -13 10 -16 6 -3 10 1 10 9 0 9 -4 16 -10 16 -5 0
-10 -4 -10 -9z"/>
<path d="M3235 1430 c3 -5 8 -10 11 -10 2 0 4 5 4 10 0 6 -5 10 -11 10 -5 0
-7 -4 -4 -10z"/>
<path d="M1780 1250 c0 -5 5 -10 10 -10 6 0 10 5 10 10 0 6 -4 10 -10 10 -5 0
-10 -4 -10 -10z"/>
<path d="M2906 3034 c-5 -14 -4 -15 9 -4 17 14 19 20 6 20 -5 0 -12 -7 -15
-16z"/>
<path d="M2848 3023 c7 -3 16 -2 19 1 4 3 -2 6 -13 5 -11 0 -14 -3 -6 -6z"/>
<path d="M1391 3536 c2 -2 18 -6 34 -10 22 -5 26 -4 15 4 -14 9 -59 15 -49 6z"/>
<path d="M1731 2974 c15 -16 25 -21 28 -13 2 7 -4 18 -15 26 -30 22 -39 15
-13 -13z"/>
<path d="M102 3548 c-16 -16 -15 -33 4 -49 14 -11 15 -10 12 7 -2 15 2 18 20
17 27 -3 29 13 3 27 -24 13 -24 13 -39 -2z"/>
<path d="M137 3499 c7 -7 15 -10 18 -7 3 3 -2 9 -12 12 -14 6 -15 5 -6 -5z"/>
<path d="M112 3410 c-44 -41 -15 -120 43 -120 30 0 75 41 75 68 0 11 -9 31
-21 46 -25 32 -66 34 -97 6z m72 -16 c19 -18 19 -20 6 -45 -15 -27 -48 -24
-62 7 -11 22 -10 28 7 40 24 18 30 18 49 -2z"/>
<path d="M4517 2563 c-4 -3 -7 -11 -7 -17 0 -6 5 -5 12 2 6 6 9 14 7 17 -3 3
-9 2 -12 -2z"/>
<path d="M910 1211 c0 -5 5 -13 10 -16 6 -3 10 -2 10 4 0 5 -4 13 -10 16 -5 3
-10 2 -10 -4z"/>
<path d="M3271 922 c-19 -53 -36 -103 -38 -109 -4 -10 14 -13 71 -13 42 0 76
4 76 8 0 8 -70 203 -74 209 -1 1 -17 -41 -35 -95z"/>
<path d="M2355 933 c-3 -15 -15 -46 -26 -70 -24 -53 -24 -63 2 -58 12 2 38 5
59 7 l38 2 -15 42 c-8 24 -21 48 -28 54 -8 6 -12 17 -9 25 3 7 1 16 -4 19 -6
3 -13 -6 -17 -21z"/>
<path d="M3604 319 c-3 -6 0 -17 7 -25 18 -17 44 -2 36 20 -7 18 -33 21 -43 5z"/>
<path d="M1370 330 c0 -5 7 -10 15 -10 8 0 15 5 15 10 0 6 -7 10 -15 10 -8 0
-15 -4 -15 -10z"/>
<path d="M1980 330 c0 -5 7 -7 15 -4 8 4 15 8 15 10 0 2 -7 4 -15 4 -8 0 -15
-4 -15 -10z"/>
<path d="M1980 290 c0 -5 9 -10 20 -10 11 0 20 5 20 10 0 6 -9 10 -20 10 -11
0 -20 -4 -20 -10z"/>
<path d="M2145 320 c-8 -13 14 -42 26 -34 5 3 9 14 9 25 0 20 -24 26 -35 9z"/>
<path d="M2533 314 c-3 -8 -1 -20 6 -27 14 -14 47 15 37 32 -10 16 -36 13 -43
-5z"/>
<path d="M2994 325 c-4 -8 -4 -22 0 -30 7 -20 36 -8 36 15 0 23 -29 35 -36 15z"/>
<path d="M3395 280 c4 -6 11 -8 16 -5 14 9 11 15 -7 15 -8 0 -12 -5 -9 -10z"/>
<path d="M4605 3690 c3 -5 8 -10 11 -10 2 0 4 5 4 10 0 6 -5 10 -11 10 -5 0
-7 -4 -4 -10z"/>
<path d="M4580 3660 c0 -5 7 -10 15 -10 8 0 15 5 15 10 0 6 -7 10 -15 10 -8 0
-15 -4 -15 -10z"/>
<path d="M10 2800 c-8 -5 -12 -11 -9 -14 3 -3 14 1 25 9 21 16 8 20 -16 5z"/>
<path d="M18 2762 c-14 -3 -16 -20 -17 -121 -1 -132 -2 -131 70 -131 105 0
157 97 108 203 -21 46 -86 66 -161 49z m100 -79 c33 -29 36 -58 8 -90 -22 -24
-27 -26 -45 -15 -12 6 -27 12 -34 12 -21 0 -39 47 -27 70 22 40 66 51 98 23z"/>
<path d="M81 2641 c-1 -27 2 -32 11 -23 8 8 8 17 0 34 -10 22 -11 21 -11 -11z"/>
</g>
</svg>
